<svg width="19" height="19" viewBox="0 0 19 19" fill="none" xmlns="http://www.w3.org/2000/svg">
<path opacity="0.4" d="M18.2687 11.7515C18.0843 11.4665 17.8221 11.1815 17.4823 11.001C17.2105 10.868 17.0357 10.6495 16.8804 10.393C16.3853 9.576 16.6765 8.5025 17.5017 8.018C18.4726 7.4765 18.7833 6.27 18.2202 5.3295L17.5697 4.2085C17.0163 3.268 15.8027 2.9355 14.8416 3.4865C13.9872 3.9425 12.8902 3.6385 12.395 2.831C12.2397 2.565 12.1523 2.28 12.1717 1.995C12.2009 1.6245 12.0843 1.273 11.9096 0.988C11.5504 0.399 10.8999 0 10.1815 0H8.81255C8.10382 0.019 7.45335 0.399 7.09413 0.988C6.90967 1.273 6.80287 1.6245 6.82229 1.995C6.84171 2.28 6.75433 2.565 6.59899 2.831C6.10385 3.6385 5.00678 3.9425 4.16213 3.4865C3.19127 2.9355 1.98741 3.268 1.42431 4.2085L0.773834 5.3295C0.220444 6.27 0.531119 7.4765 1.49227 8.018C2.3175 8.5025 2.60876 9.576 2.12333 10.393C1.95828 10.6495 1.78353 10.868 1.51169 11.001C1.18159 11.1815 0.890337 11.4665 0.734999 11.7515C0.375781 12.3405 0.395198 13.0815 0.754416 13.699L1.42431 14.839C1.78353 15.447 2.45342 15.827 3.15244 15.827C3.48253 15.827 3.87088 15.732 4.18155 15.542C4.42427 15.3805 4.71552 15.3235 5.03591 15.3235C5.99706 15.3235 6.80287 16.112 6.82229 17.0525C6.82229 18.145 7.71548 19 8.84168 19H10.162C11.2785 19 12.1717 18.145 12.1717 17.0525C12.2009 16.112 13.0067 15.3235 13.9678 15.3235C14.2785 15.3235 14.5697 15.3805 14.8222 15.542C15.1328 15.732 15.5115 15.827 15.8513 15.827C16.5406 15.827 17.2105 15.447 17.5697 14.839L18.2493 13.699C18.5988 13.0625 18.6279 12.3405 18.2687 11.7515Z" fill="white"/>
<path d="M9.51164 12.1884C7.98739 12.1884 6.75439 11.0009 6.75439 9.50942C6.75439 8.01792 7.98739 6.82092 9.51164 6.82092C11.0359 6.82092 12.2398 8.01792 12.2398 9.50942C12.2398 11.0009 11.0359 12.1884 9.51164 12.1884Z" fill="white"/>
</svg>
