<svg width="40" height="40" viewBox="0 0 40 40" fill="none" xmlns="http://www.w3.org/2000/svg">
<path d="M17 1.73205C18.8564 0.660254 21.1436 0.660254 23 1.73205L34.3205 8.26795C36.1769 9.33975 37.3205 11.3205 37.3205 13.4641V26.5359C37.3205 28.6795 36.1769 30.6603 34.3205 31.732L23 38.2679C21.1436 39.3397 18.8564 39.3397 17 38.2679L5.67949 31.732C3.82308 30.6603 2.67949 28.6795 2.67949 26.5359V13.4641C2.67949 11.3205 3.82308 9.33975 5.67949 8.26795L17 1.73205Z" fill="#21CFBA"/>
<g clip-path="url(#clip0_2_2105)">
<path d="M20 36C28.8366 36 36 28.8366 36 20C36 11.1634 28.8366 4 20 4C11.1634 4 4 11.1634 4 20C4 28.8366 11.1634 36 20 36Z" fill="#21CFBA"/>
<path d="M31 20.015V20.023C30.9967 20.1028 30.9752 20.1808 30.937 20.251C30.797 20.506 27.446 26.5 20.001 26.5C12.556 26.5 9.203 20.506 9.064 20.251C9.02548 20.1809 9.00358 20.1029 9 20.023V19.978L9.001 19.955C9.00682 19.8891 9.02515 19.825 9.055 19.766L9.057 19.762L9.063 19.75C9.203 19.494 12.555 13.5 20 13.5C27.445 13.5 30.797 19.495 30.936 19.75L30.942 19.762L30.945 19.767C30.9744 19.8258 30.9924 19.8895 30.998 19.955V20.001L31 20.015ZM29.89 20C29.327 19.126 27.211 16.207 23.375 15.033C24.61 15.8983 25.4788 17.1923 25.812 18.663C26.075 18.723 26.264 18.959 26.269 19.233C26.274 19.507 26.094 19.749 25.832 19.819C25.57 19.889 25.297 19.769 25.167 19.529C25.1041 19.4121 25.0817 19.2777 25.1032 19.1467C25.1247 19.0158 25.189 18.8956 25.286 18.805C24.792 16.582 22.964 14.865 20.712 14.566C20.695 14.5639 20.6783 14.5603 20.662 14.555C20.2207 14.5313 19.7783 14.5313 19.337 14.555C19.3207 14.5603 19.304 14.5639 19.287 14.566C18.4094 14.6841 17.5747 15.0173 16.857 15.536C16.822 15.5608 16.7817 15.5771 16.7393 15.5834C16.6968 15.5896 16.6535 15.5858 16.6129 15.5721C16.5722 15.5585 16.5353 15.5354 16.5053 15.5048C16.4753 15.4742 16.4529 15.4369 16.44 15.396C16.4225 15.3405 16.4228 15.281 16.441 15.2258C16.4591 15.1705 16.4941 15.1223 16.541 15.088C16.5652 15.0705 16.5895 15.0531 16.614 15.036C12.784 16.213 10.672 19.126 10.11 20C10.667 20.867 12.75 23.74 16.52 24.935C15.2766 24.0271 14.427 22.6785 14.145 21.165C13.891 21.07 13.735 20.812 13.765 20.539C13.795 20.266 14.005 20.049 14.273 20.014C14.541 19.979 14.799 20.134 14.897 20.391C14.9443 20.5151 14.9492 20.6514 14.9108 20.7786C14.8725 20.9058 14.7931 21.0167 14.685 21.094C15.115 23.304 16.833 25.021 19.017 25.424C19.6719 25.4779 20.3301 25.4779 20.985 25.424C21.7998 25.2709 22.5682 24.9314 23.23 24.432C23.2681 24.4024 23.3134 24.3836 23.3612 24.3774C23.4091 24.3712 23.4577 24.378 23.502 24.397C23.5465 24.4167 23.585 24.4478 23.6137 24.4872C23.6424 24.5265 23.6603 24.5726 23.6656 24.621C23.6709 24.6694 23.6633 24.7184 23.6437 24.7629C23.6242 24.8075 23.5932 24.8461 23.554 24.875L23.467 24.94C27.245 23.747 29.332 20.868 29.89 20ZM24.82 20.017C24.82 22.714 22.658 24.909 20 24.909C17.342 24.909 15.18 22.714 15.18 20.017C15.18 17.32 17.342 15.126 20 15.126C22.658 15.126 24.82 17.319 24.82 20.017ZM24.276 20.017C24.276 17.625 22.358 15.678 20 15.678C17.642 15.678 15.723 17.624 15.723 20.018C15.723 22.412 17.642 24.356 20 24.356C22.358 24.356 24.276 22.41 24.276 20.017ZM21.576 18.674C21.576 19.198 21.317 19.686 20.886 19.974L21.316 22.601C21.3259 22.6476 21.325 22.6958 21.3136 22.7419C21.3021 22.7881 21.2802 22.8311 21.2497 22.8676C21.2192 22.9041 21.1807 22.9332 21.1373 22.9527C21.0939 22.9721 21.0466 22.9815 20.999 22.98H19.079C19.0314 22.9815 18.9841 22.9721 18.9406 22.9526C18.8972 22.9332 18.8587 22.9041 18.8281 22.8676C18.7975 22.8311 18.7755 22.7882 18.7639 22.742C18.7523 22.6958 18.7513 22.6476 18.761 22.601L19.189 19.974C18.577 19.563 18.337 18.769 18.616 18.08C18.895 17.391 19.616 16.999 20.336 17.143C21.057 17.288 21.576 17.929 21.576 18.674ZM25.923 20.717C25.7834 21.9697 25.2554 23.1474 24.413 24.085C24.3813 24.1214 24.3403 24.1485 24.2945 24.1637C24.2487 24.1789 24.1997 24.1815 24.1525 24.1713C24.1053 24.1611 24.0617 24.1384 24.0263 24.1057C23.9909 24.0729 23.9649 24.0312 23.951 23.985C23.9364 23.9384 23.9343 23.8887 23.9448 23.841C23.9553 23.7933 23.9781 23.7492 24.011 23.713C24.7763 22.8611 25.256 21.7911 25.383 20.653C25.3911 20.5811 25.4272 20.5153 25.4836 20.4699C25.54 20.4246 25.612 20.4034 25.684 20.411C25.834 20.429 25.94 20.566 25.923 20.717ZM16.053 15.849C16.1055 15.8997 16.136 15.969 16.1379 16.042C16.1398 16.1149 16.1129 16.1857 16.063 16.239C15.2959 17.0601 14.7992 18.0967 14.64 19.209C14.6294 19.2807 14.5908 19.3452 14.5327 19.3885C14.4746 19.4318 14.4017 19.4503 14.33 19.44C14.2583 19.4284 14.1941 19.3891 14.1513 19.3305C14.1084 19.2719 14.0903 19.1988 14.101 19.127C14.2767 17.9033 14.8236 16.763 15.668 15.86C15.6925 15.8338 15.7219 15.8127 15.7546 15.798C15.7873 15.7833 15.8226 15.7752 15.8584 15.7743C15.8942 15.7734 15.9299 15.7796 15.9633 15.7926C15.9967 15.8056 16.0272 15.8251 16.053 15.85V15.849Z" fill="white"/>
</g>
<defs>
<clipPath id="clip0_2_2105">
<rect width="32" height="32" fill="white" transform="translate(4 4)"/>
</clipPath>
</defs>
</svg>
