<svg width="40" height="40" viewBox="0 0 40 40" fill="none" xmlns="http://www.w3.org/2000/svg">
<path d="M17 1.73205C18.8564 0.660254 21.1436 0.660254 23 1.73205L34.3205 8.26795C36.1769 9.33975 37.3205 11.3205 37.3205 13.4641V26.5359C37.3205 28.6795 36.1769 30.6603 34.3205 31.732L23 38.2679C21.1436 39.3397 18.8564 39.3397 17 38.2679L5.67949 31.732C3.82308 30.6603 2.67949 28.6795 2.67949 26.5359V13.4641C2.67949 11.3205 3.82308 9.33975 5.67949 8.26795L17 1.73205Z" fill="#F3B92F"/>
<path d="M15.339 17.085L20 12.424L24.6632 17.087L27.3752 14.375L20 7L12.6272 14.3728L15.3391 17.0848L15.339 17.085ZM8 19L10.7121 16.2875L13.424 18.9994L10.7119 21.7115L8 19ZM15.339 20.9153L20 25.576L24.6631 20.9131L27.3765 23.6236L27.3752 23.6251L20 31L12.6272 23.6272L12.6234 23.6234L15.3393 20.915L15.339 20.9153ZM26.576 19.0012L29.2881 16.2891L32 19.001L29.288 21.7131L26.576 19.0012Z" fill="white"/>
<path d="M22.75 18.9977H22.7512L19.9994 16.2458L17.9654 18.2792L17.7317 18.5129L17.2498 18.995L17.246 18.9987L17.2498 19.0026L19.9994 21.7525L22.7514 19.0006L22.7527 18.9991L22.7502 18.9977" fill="white"/>
</svg>
