<svg width="32" height="32" viewBox="0 0 32 32" fill="none" xmlns="http://www.w3.org/2000/svg">
  <circle cx="16" cy="16" r="16" fill="#F7931A"/>
  <path d="M22.5 14.25c.375-2.5-1.5-3.875-4.125-4.75l.875-3.5-2.125-.5-.875 3.375c-.5-.125-1.125-.25-1.625-.375l.875-3.375L13.375 5l-.875 3.5c-.375-.125-.875-.25-1.25-.375v.125L8.5 7.625 8 9.875s1.5.375 1.5.5c.875.25.875.875.875 1.375L9.5 15.5c.125 0 .125 0 .25.125h-.25L8.375 21c-.125.25-.375.625-1 .5 0 0-1.5-.375-1.5-.375L5 23.5l2.625.625c.5.125 1 .25 1.375.375l-.875 3.625 2.125.5.875-3.5c.5.125 1.125.25 1.625.375l-.875 3.5 2.125.5.875-3.625c3.25.625 5.625.375 6.625-2.5.875-2.25 0-3.625-1.75-4.5 1.25-.25 2.125-1 2.375-2.625zM18 20.75c-.625 2.5-4.75 1.125-6.125.875l1.125-4.375c1.375.375 5.75 1 5 3.5zm.625-6.375c-.5 2.25-4 1.125-5.125.875l1-4c1.125.25 4.75.75 4.125 3.125z" fill="white"/>
</svg> 