<svg width="40" height="40" viewBox="0 0 40 40" fill="none" xmlns="http://www.w3.org/2000/svg">
<path d="M17 1.73205C18.8564 0.660254 21.1436 0.660254 23 1.73205L34.3205 8.26795C36.1769 9.33975 37.3205 11.3205 37.3205 13.4641V26.5359C37.3205 28.6795 36.1769 30.6603 34.3205 31.732L23 38.2679C21.1436 39.3397 18.8564 39.3397 17 38.2679L5.67949 31.732C3.82308 30.6603 2.67949 28.6795 2.67949 26.5359V13.4641C2.67949 11.3205 3.82308 9.33975 5.67949 8.26795L17 1.73205Z" fill="white"/>
<path d="M19.7972 8L19.6362 8.54692V24.4158L19.7972 24.5764L27.1632 20.2223L19.7972 8Z" fill="#343434"/>
<path d="M19.7956 8L12.4294 20.2223L19.7956 24.5764V16.8741V8Z" fill="#8C8C8C"/>
<path d="M19.7972 25.9717L19.7065 26.0824V31.7351L19.7972 32L27.1677 21.6199L19.7972 25.9717Z" fill="#3C3C3B"/>
<path d="M19.7956 32V25.9717L12.4294 21.6199L19.7956 32Z" fill="#8C8C8C"/>
<path d="M19.8 24.5761L27.1661 20.222L19.8 16.8738V24.5761Z" fill="#141414"/>
<path d="M12.4294 20.222L19.7956 24.5761V16.8738L12.4294 20.222Z" fill="#393939"/>
</svg>
