<svg width="40" height="40" viewBox="0 0 40 40" fill="none" xmlns="http://www.w3.org/2000/svg">
<path d="M17 1.73205C18.8564 0.660254 21.1436 0.660254 23 1.73205L34.3205 8.26795C36.1769 9.33975 37.3205 11.3205 37.3205 13.4641V26.5359C37.3205 28.6795 36.1769 30.6603 34.3205 31.732L23 38.2679C21.1436 39.3397 18.8564 39.3397 17 38.2679L5.67949 31.732C3.82308 30.6603 2.67949 28.6795 2.67949 26.5359V13.4641C2.67949 11.3205 3.82308 9.33975 5.67949 8.26795L17 1.73205Z" fill="#FF060A"/>
<path d="M30.3872 16.4969C29.3283 15.5193 27.8636 14.0263 26.6707 12.9675L26.6001 12.9181C26.4827 12.8238 26.3502 12.7498 26.2083 12.6993C23.3319 12.1628 9.94481 9.66043 9.68363 9.69219C9.61045 9.70244 9.5405 9.72898 9.47893 9.76984L9.41187 9.82278C9.3293 9.90664 9.26658 10.008 9.22834 10.1193L9.21069 10.1651V10.4157V10.4545C10.7178 14.651 16.6683 28.3981 17.8401 31.624C17.9107 31.8428 18.0448 32.2593 18.2954 32.2804H18.3519C18.486 32.2804 19.0578 31.5251 19.0578 31.5251C19.0578 31.5251 29.2789 19.1298 30.313 17.8098C30.4469 17.6472 30.5651 17.4723 30.666 17.2875C30.6917 17.1429 30.6796 16.994 30.6307 16.8555C30.5819 16.7169 30.498 16.5934 30.3872 16.4969ZM21.6801 17.9404L26.0425 14.3228L28.6013 16.6804L21.6801 17.9404ZM19.986 17.704L12.4754 11.5487L24.6272 13.7898L19.986 17.704ZM20.6636 19.3169L28.3507 18.0781L19.5625 28.6663L20.6636 19.3169ZM11.4554 12.1628L19.3578 18.8687L18.2142 28.6734L11.4554 12.1628Z" fill="#FFFEFE"/>
</svg>
