<svg width="40" height="40" viewBox="0 0 40 40" fill="none" xmlns="http://www.w3.org/2000/svg">
<path d="M17 1.73205C18.8564 0.660254 21.1436 0.660254 23 1.73205L34.3205 8.26795C36.1769 9.33975 37.3205 11.3205 37.3205 13.4641V26.5359C37.3205 28.6795 36.1769 30.6603 34.3205 31.732L23 38.2679C21.1436 39.3397 18.8564 39.3397 17 38.2679L5.67949 31.732C3.82308 30.6603 2.67949 28.6795 2.67949 26.5359V13.4641C2.67949 11.3205 3.82308 9.33975 5.67949 8.26795L17 1.73205Z" fill="#4FA784"/>
<g clip-path="url(#clip0_2_2110)">
<path d="M20 36C28.8366 36 36 28.8366 36 20C36 11.1634 28.8366 4 20 4C11.1634 4 4 11.1634 4 20C4 28.8366 11.1634 36 20 36Z" fill="#4FA784"/>
<path fill-rule="evenodd" clip-rule="evenodd" d="M29.575 16.8459L21.465 14.5219L18.691 19.2469L15.469 15.5099L16.929 15.3219L18.434 17.0899L20.104 14.1309L12.754 12.0239C12.6553 11.9946 12.5506 11.9919 12.4505 12.016C12.3503 12.0401 12.2583 12.0902 12.1837 12.1611C12.109 12.2321 12.0544 12.3215 12.0254 12.4203C11.9963 12.5191 11.9938 12.6238 12.018 12.7239L15.274 25.7999L18.771 19.9119L21.993 23.6489L20.533 23.8369L19.029 22.0689L15.719 27.5859L16.209 29.5559C16.2345 29.6558 16.2858 29.7473 16.3576 29.8212C16.4295 29.8952 16.5195 29.949 16.6186 29.9773C16.7178 30.0057 16.8226 30.0075 16.9227 29.9827C17.0228 29.9579 17.1146 29.9073 17.189 29.8359L29.819 17.8259C29.8936 17.7553 29.9481 17.6661 29.9769 17.5675C30.0057 17.4689 30.0078 17.3644 29.983 17.2647C29.9582 17.165 29.9073 17.0737 29.8356 17.0002C29.764 16.9266 29.674 16.8733 29.575 16.8459Z" fill="white"/>
</g>
<defs>
<clipPath id="clip0_2_2110">
<rect width="32" height="32" fill="white" transform="translate(4 4)"/>
</clipPath>
</defs>
</svg>
