<svg width="853" height="1045" viewBox="0 0 853 1045" fill="none" xmlns="http://www.w3.org/2000/svg">
<g opacity="0.26" filter="url(#filter0_f_2_1056)">
<path d="M579.305 221.145C699.537 175.015 916.385 210.711 1013 267.276L1013 845L200 845L329.536 724.183C360.31 687.572 421.857 586.781 421.857 476.508C421.857 338.667 459.072 267.275 579.305 221.145Z" fill="url(#paint0_linear_2_1056)"/>
<path d="M579.305 221.145C699.537 175.015 916.385 210.711 1013 267.276L1013 845L200 845L329.536 724.183C360.31 687.572 421.857 586.781 421.857 476.508C421.857 338.667 459.072 267.275 579.305 221.145Z" fill="url(#paint1_linear_2_1056)" fill-opacity="0.9"/>
</g>
<defs>
<filter id="filter0_f_2_1056" x="-6.10352e-05" y="6.10352e-05" width="1213" height="1045" filterUnits="userSpaceOnUse" color-interpolation-filters="sRGB">
<feFlood flood-opacity="0" result="BackgroundImageFix"/>
<feBlend mode="normal" in="SourceGraphic" in2="BackgroundImageFix" result="shape"/>
<feGaussianBlur stdDeviation="100" result="effect1_foregroundBlur_2_1056"/>
</filter>
<linearGradient id="paint0_linear_2_1056" x1="825.471" y1="726.073" x2="174.404" y2="552.386" gradientUnits="userSpaceOnUse">
<stop stop-color="#9901FE"/>
<stop offset="0.405115" stop-color="#9901FE" stop-opacity="0.467139"/>
<stop offset="1" stop-color="#AA01FE" stop-opacity="0"/>
</linearGradient>
<linearGradient id="paint1_linear_2_1056" x1="825.471" y1="726.073" x2="174.404" y2="552.386" gradientUnits="userSpaceOnUse">
<stop stop-color="#45A71C"/>
<stop offset="0.405115" stop-color="#88CD1A"/>
<stop offset="1" stop-color="#74AB22" stop-opacity="0"/>
</linearGradient>
</defs>
</svg>
