<svg width="1440" height="423" viewBox="0 0 1440 423" fill="none" xmlns="http://www.w3.org/2000/svg">
<ellipse cx="3.98849" cy="1" rx="0.61251" ry="1" fill="white"/>
<ellipse cx="75.9583" cy="95.5" rx="0.918765" ry="1.5" fill="white"/>
<ellipse cx="123.428" cy="69" rx="0.61251" ry="1" fill="white"/>
<ellipse cx="51.7646" cy="286" rx="1.22502" ry="2" fill="white"/>
<ellipse cx="70.4461" cy="330.5" rx="0.918765" ry="1.5" fill="white"/>
<ellipse cx="146.091" cy="320" rx="1.22502" ry="2" fill="white" fill-opacity="0.4"/>
<ellipse cx="185.292" cy="337" rx="0.61251" ry="1" fill="white" fill-opacity="0.5"/>
<ellipse cx="444.077" cy="338.5" rx="0.918765" ry="1.5" fill="white"/>
<ellipse cx="512.984" cy="415" rx="0.61251" ry="1" fill="white" fill-opacity="0.4"/>
<ellipse cx="568.11" cy="394" rx="1.22502" ry="2" fill="white" fill-opacity="0.7"/>
<ellipse cx="581.891" cy="354.5" rx="0.918765" ry="1.5" fill="white"/>
<ellipse cx="477.765" cy="209.5" rx="0.918765" ry="1.5" fill="white"/>
<ellipse cx="405.795" cy="100" rx="0.61251" ry="1" fill="white"/>
<ellipse cx="449.896" cy="207" rx="1.22502" ry="2" fill="white" fill-opacity="0.4"/>
<ellipse cx="542.997" cy="125" rx="1.22502" ry="2" fill="white" fill-opacity="0.8"/>
<ellipse cx="859.052" cy="53" rx="0.61251" ry="1" fill="white"/>
<ellipse cx="797.189" cy="72" rx="0.61251" ry="1" fill="white" fill-opacity="0.7"/>
<ellipse cx="939.291" cy="117" rx="1.22502" ry="2" fill="white" fill-opacity="0.4"/>
<ellipse cx="939.904" cy="247" rx="0.61251" ry="1" fill="white" fill-opacity="0.3"/>
<ellipse cx="940.822" cy="253.5" rx="1.53127" ry="2.5" fill="white" fill-opacity="0.7"/>
<ellipse cx="1212.16" cy="130.5" rx="0.918765" ry="1.5" fill="white"/>
<ellipse cx="1206.96" cy="228" rx="1.22502" ry="2" fill="white" fill-opacity="0.6"/>
<ellipse cx="1226.25" cy="374.5" rx="1.53127" ry="2.5" fill="white" fill-opacity="0.8"/>
<ellipse cx="991.967" cy="120" rx="1.22502" ry="2" fill="white"/>
<ellipse cx="1384.28" cy="178.5" rx="0.918765" ry="1.5" fill="white"/>
<ellipse cx="1413.07" cy="79.5" rx="1.53127" ry="2.5" fill="white" fill-opacity="0.5"/>
<ellipse cx="1377.24" cy="193" rx="1.22502" ry="2" fill="white"/>
<ellipse cx="1324.87" cy="222.5" rx="1.53127" ry="2.5" fill="white" fill-opacity="0.7"/>
<ellipse cx="1415.52" cy="323.5" rx="0.918765" ry="1.5" fill="white" fill-opacity="0.2"/>
<ellipse cx="1412.15" cy="386" rx="0.61251" ry="1" fill="white" fill-opacity="0.4"/>
<ellipse cx="768.095" cy="364.5" rx="0.918765" ry="1.5" fill="white"/>
</svg>
