<svg width="1440" height="797" viewBox="0 0 1440 797" fill="none" xmlns="http://www.w3.org/2000/svg">
<mask id="mask0_2_1717" style="mask-type:alpha" maskUnits="userSpaceOnUse" x="-425" y="-1" width="2345" height="798">
<g opacity="0.2">
<g opacity="0.3">
<path opacity="0.3" d="M39.1812 309.529H-16.1455V796.83H39.1812V309.529Z" fill="url(#paint0_linear_2_1717)"/>
<path opacity="0.3" d="M120.765 224.781H65.4379V796.499H120.765V224.781Z" fill="url(#paint1_linear_2_1717)"/>
<path opacity="0.3" d="M202.66 58.2643H147.333V796.83H202.66V58.2643Z" fill="url(#paint2_linear_2_1717)"/>
<path opacity="0.3" d="M284.244 130.763H228.917V796.499H284.244V130.763Z" fill="url(#paint3_linear_2_1717)"/>
<path opacity="0.3" d="M366.14 259.541H310.813V796.499H366.14V259.541Z" fill="url(#paint4_linear_2_1717)"/>
<path opacity="0.3" d="M447.723 418.112H392.396V796.499H447.723V418.112Z" fill="url(#paint5_linear_2_1717)"/>
<path opacity="0.3" d="M529.619 545.234H474.292V796.499H529.619V545.234Z" fill="url(#paint6_linear_2_1717)"/>
<path opacity="0.3" d="M611.515 392.29H556.188V796.499H611.515V392.29Z" fill="url(#paint7_linear_2_1717)"/>
<path opacity="0.3" d="M693.098 -0.00012207H637.772V796.83H693.098V-0.00012207Z" fill="url(#paint8_linear_2_1717)"/>
<path opacity="0.3" d="M774.994 92.0309H719.667V796.499H774.994V92.0309Z" fill="url(#paint9_linear_2_1717)"/>
<path opacity="0.3" d="M856.578 346.275H801.251V796.499H856.578V346.275Z" fill="url(#paint10_linear_2_1717)"/>
<path opacity="0.3" d="M938.473 685.267H883.147V796.83H938.473V685.267Z" fill="url(#paint11_linear_2_1717)"/>
<path opacity="0.3" d="M1020.06 571.387H964.73V796.499H1020.06V571.387Z" fill="url(#paint12_linear_2_1717)"/>
<path opacity="0.3" d="M1101.95 365.807H1046.63V796.499H1101.95V365.807Z" fill="url(#paint13_linear_2_1717)"/>
<path opacity="0.3" d="M1183.54 112.225H1128.21V796.499H1183.54V112.225Z" fill="url(#paint14_linear_2_1717)"/>
<path opacity="0.3" d="M1265.43 326.081H1210.11V796.83H1265.43V326.081Z" fill="url(#paint15_linear_2_1717)"/>
<path opacity="0.3" d="M1347.02 407.188H1291.69V796.83H1347.02V407.188Z" fill="url(#paint16_linear_2_1717)"/>
<path opacity="0.3" d="M1428.91 276.424H1373.58V796.83H1428.91V276.424Z" fill="url(#paint17_linear_2_1717)"/>
</g>
<g opacity="0.8">
<path opacity="0.8" d="M1.98399 520.075H-31.462V796.499H1.98399V520.075Z" fill="url(#paint18_linear_2_1717)"/>
<path opacity="0.8" d="M51.0589 694.536H17.6129V796.499H51.0589V694.536Z" fill="url(#paint19_linear_2_1717)"/>
<path opacity="0.8" d="M100.135 438.637H66.6885V796.83H100.135V438.637Z" fill="url(#paint20_linear_2_1717)"/>
<path opacity="0.8" d="M149.522 589.263H116.076V796.499H149.522V589.263Z" fill="url(#paint21_linear_2_1717)"/>
<path opacity="0.8" d="M198.597 484.984H165.15V796.83H198.597V484.984Z" fill="url(#paint22_linear_2_1717)"/>
<path opacity="0.8" d="M247.672 607.471H214.226V796.83H247.672V607.471Z" fill="url(#paint23_linear_2_1717)"/>
<path opacity="0.8" d="M297.059 504.846H263.613V796.83H297.059V504.846Z" fill="url(#paint24_linear_2_1717)"/>
<path opacity="0.8" d="M346.135 454.196H312.688V796.83H346.135V454.196Z" fill="url(#paint25_linear_2_1717)"/>
<path opacity="0.8" d="M395.21 354.22H361.764V796.499H395.21V354.22Z" fill="url(#paint26_linear_2_1717)"/>
<path opacity="0.8" d="M444.285 397.587H410.839V796.499H444.285V397.587Z" fill="url(#paint27_linear_2_1717)"/>
<path opacity="0.8" d="M493.672 475.052H460.226V796.83H493.672V475.052Z" fill="url(#paint28_linear_2_1717)"/>
<path opacity="0.8" d="M542.747 569.732H509.301V796.499H542.747V569.732Z" fill="url(#paint29_linear_2_1717)"/>
<path opacity="0.8" d="M591.822 645.872H558.376V796.499H591.822V645.872Z" fill="url(#paint30_linear_2_1717)"/>
<path opacity="0.8" d="M641.21 554.504H607.764V796.83H641.21V554.504Z" fill="url(#paint31_linear_2_1717)"/>
<path opacity="0.8" d="M690.285 319.46H656.839V796.83H690.285V319.46Z" fill="url(#paint32_linear_2_1717)"/>
<path opacity="0.8" d="M739.36 374.414H705.914V796.499H739.36V374.414Z" fill="url(#paint33_linear_2_1717)"/>
<path opacity="0.8" d="M788.748 526.696H755.302V796.499H788.748V526.696Z" fill="url(#paint34_linear_2_1717)"/>
<path opacity="0.8" d="M837.823 729.958H804.377V796.83H837.823V729.958Z" fill="url(#paint35_linear_2_1717)"/>
<path opacity="0.8" d="M886.898 661.763H853.452V796.499H886.898V661.763Z" fill="url(#paint36_linear_2_1717)"/>
<path opacity="0.8" d="M935.973 538.614H902.527V796.83H935.973V538.614Z" fill="url(#paint37_linear_2_1717)"/>
<path opacity="0.8" d="M985.36 386.663H951.914V796.499H985.36V386.663Z" fill="url(#paint38_linear_2_1717)"/>
<path opacity="0.8" d="M1034.44 514.778H1000.99V796.83H1034.44V514.778Z" fill="url(#paint39_linear_2_1717)"/>
<path opacity="0.8" d="M1083.51 563.111H1050.06V796.499H1083.51V563.111Z" fill="url(#paint40_linear_2_1717)"/>
<path opacity="0.8" d="M1132.9 484.984H1099.45V796.83H1132.9V484.984Z" fill="url(#paint41_linear_2_1717)"/>
<path opacity="0.8" d="M1181.97 620.713H1148.53V796.83H1181.97V620.713Z" fill="url(#paint42_linear_2_1717)"/>
<path opacity="0.8" d="M1231.05 692.881H1197.6V796.499H1231.05V692.881Z" fill="url(#paint43_linear_2_1717)"/>
<path opacity="0.8" d="M1280.44 549.869H1246.99V796.499H1280.44V549.869Z" fill="url(#paint44_linear_2_1717)"/>
<path opacity="0.8" d="M1329.51 402.222H1296.06V796.83H1329.51V402.222Z" fill="url(#paint45_linear_2_1717)"/>
<path opacity="0.8" d="M1378.59 635.941H1345.14V796.83H1378.59V635.941Z" fill="url(#paint46_linear_2_1717)"/>
<path opacity="0.8" d="M1427.97 563.111H1394.53V796.499H1427.97V563.111Z" fill="url(#paint47_linear_2_1717)"/>
</g>
</g>
</mask>
<g mask="url(#mask0_2_1717)">
<rect x="-587.91" y="63.7882" width="2528.16" height="1036.87" fill="url(#paint48_linear_2_1717)"/>
</g>
<defs>
<linearGradient id="paint0_linear_2_1717" x1="11.53" y1="3.6326" x2="11.53" y2="826.939" gradientUnits="userSpaceOnUse">
<stop stop-color="white"/>
<stop offset="1" stop-color="white" stop-opacity="0.2"/>
</linearGradient>
<linearGradient id="paint1_linear_2_1717" x1="93.2772" y1="3.63011" x2="93.2772" y2="826.939" gradientUnits="userSpaceOnUse">
<stop stop-color="white"/>
<stop offset="1" stop-color="white" stop-opacity="0.2"/>
</linearGradient>
<linearGradient id="paint2_linear_2_1717" x1="175.024" y1="3.63127" x2="175.024" y2="826.937" gradientUnits="userSpaceOnUse">
<stop stop-color="white"/>
<stop offset="1" stop-color="white" stop-opacity="0.2"/>
</linearGradient>
<linearGradient id="paint3_linear_2_1717" x1="256.771" y1="3.63179" x2="256.771" y2="826.941" gradientUnits="userSpaceOnUse">
<stop stop-color="white"/>
<stop offset="1" stop-color="white" stop-opacity="0.2"/>
</linearGradient>
<linearGradient id="paint4_linear_2_1717" x1="338.518" y1="3.63832" x2="338.518" y2="826.939" gradientUnits="userSpaceOnUse">
<stop stop-color="white"/>
<stop offset="1" stop-color="white" stop-opacity="0.2"/>
</linearGradient>
<linearGradient id="paint5_linear_2_1717" x1="420.265" y1="3.63453" x2="420.265" y2="826.943" gradientUnits="userSpaceOnUse">
<stop stop-color="white"/>
<stop offset="1" stop-color="white" stop-opacity="0.2"/>
</linearGradient>
<linearGradient id="paint6_linear_2_1717" x1="502.009" y1="3.63331" x2="502.009" y2="826.945" gradientUnits="userSpaceOnUse">
<stop stop-color="white"/>
<stop offset="1" stop-color="white" stop-opacity="0.2"/>
</linearGradient>
<linearGradient id="paint7_linear_2_1717" x1="583.759" y1="3.63902" x2="583.759" y2="826.945" gradientUnits="userSpaceOnUse">
<stop stop-color="white"/>
<stop offset="1" stop-color="white" stop-opacity="0.2"/>
</linearGradient>
<linearGradient id="paint8_linear_2_1717" x1="665.506" y1="3.63775" x2="665.506" y2="826.944" gradientUnits="userSpaceOnUse">
<stop stop-color="white"/>
<stop offset="1" stop-color="white" stop-opacity="0.2"/>
</linearGradient>
<linearGradient id="paint9_linear_2_1717" x1="747.255" y1="3.63577" x2="747.255" y2="826.943" gradientUnits="userSpaceOnUse">
<stop stop-color="white"/>
<stop offset="1" stop-color="white" stop-opacity="0.2"/>
</linearGradient>
<linearGradient id="paint10_linear_2_1717" x1="829" y1="3.63536" x2="829" y2="826.944" gradientUnits="userSpaceOnUse">
<stop stop-color="white"/>
<stop offset="1" stop-color="white" stop-opacity="0.2"/>
</linearGradient>
<linearGradient id="paint11_linear_2_1717" x1="910.747" y1="3.65091" x2="910.747" y2="826.944" gradientUnits="userSpaceOnUse">
<stop stop-color="white"/>
<stop offset="1" stop-color="white" stop-opacity="0.2"/>
</linearGradient>
<linearGradient id="paint12_linear_2_1717" x1="992.49" y1="3.64462" x2="992.49" y2="826.944" gradientUnits="userSpaceOnUse">
<stop stop-color="white"/>
<stop offset="1" stop-color="white" stop-opacity="0.2"/>
</linearGradient>
<linearGradient id="paint13_linear_2_1717" x1="1074.24" y1="3.63921" x2="1074.24" y2="826.943" gradientUnits="userSpaceOnUse">
<stop stop-color="white"/>
<stop offset="1" stop-color="white" stop-opacity="0.2"/>
</linearGradient>
<linearGradient id="paint14_linear_2_1717" x1="1155.99" y1="3.63512" x2="1155.99" y2="826.947" gradientUnits="userSpaceOnUse">
<stop stop-color="white"/>
<stop offset="1" stop-color="white" stop-opacity="0.2"/>
</linearGradient>
<linearGradient id="paint15_linear_2_1717" x1="1237.73" y1="3.63736" x2="1237.73" y2="826.943" gradientUnits="userSpaceOnUse">
<stop stop-color="white"/>
<stop offset="1" stop-color="white" stop-opacity="0.2"/>
</linearGradient>
<linearGradient id="paint16_linear_2_1717" x1="1319.48" y1="3.64036" x2="1319.48" y2="826.945" gradientUnits="userSpaceOnUse">
<stop stop-color="white"/>
<stop offset="1" stop-color="white" stop-opacity="0.2"/>
</linearGradient>
<linearGradient id="paint17_linear_2_1717" x1="1401.23" y1="3.63477" x2="1401.23" y2="826.945" gradientUnits="userSpaceOnUse">
<stop stop-color="white"/>
<stop offset="1" stop-color="white" stop-opacity="0.2"/>
</linearGradient>
<linearGradient id="paint18_linear_2_1717" x1="-14.8884" y1="321.585" x2="-14.8884" y2="814.781" gradientUnits="userSpaceOnUse">
<stop stop-color="white"/>
<stop offset="1" stop-color="white" stop-opacity="0.2"/>
</linearGradient>
<linearGradient id="paint19_linear_2_1717" x1="34.2819" y1="321.585" x2="34.2819" y2="814.781" gradientUnits="userSpaceOnUse">
<stop stop-color="white"/>
<stop offset="1" stop-color="white" stop-opacity="0.2"/>
</linearGradient>
<linearGradient id="paint20_linear_2_1717" x1="83.4528" y1="321.584" x2="83.4528" y2="814.781" gradientUnits="userSpaceOnUse">
<stop stop-color="white"/>
<stop offset="1" stop-color="white" stop-opacity="0.2"/>
</linearGradient>
<linearGradient id="paint21_linear_2_1717" x1="132.623" y1="321.584" x2="132.623" y2="814.779" gradientUnits="userSpaceOnUse">
<stop stop-color="white"/>
<stop offset="1" stop-color="white" stop-opacity="0.2"/>
</linearGradient>
<linearGradient id="paint22_linear_2_1717" x1="181.792" y1="321.584" x2="181.792" y2="814.782" gradientUnits="userSpaceOnUse">
<stop stop-color="white"/>
<stop offset="1" stop-color="white" stop-opacity="0.2"/>
</linearGradient>
<linearGradient id="paint23_linear_2_1717" x1="230.965" y1="321.583" x2="230.965" y2="814.781" gradientUnits="userSpaceOnUse">
<stop stop-color="white"/>
<stop offset="1" stop-color="white" stop-opacity="0.2"/>
</linearGradient>
<linearGradient id="paint24_linear_2_1717" x1="280.135" y1="321.584" x2="280.135" y2="814.781" gradientUnits="userSpaceOnUse">
<stop stop-color="white"/>
<stop offset="1" stop-color="white" stop-opacity="0.2"/>
</linearGradient>
<linearGradient id="paint25_linear_2_1717" x1="329.305" y1="321.584" x2="329.305" y2="814.781" gradientUnits="userSpaceOnUse">
<stop stop-color="white"/>
<stop offset="1" stop-color="white" stop-opacity="0.2"/>
</linearGradient>
<linearGradient id="paint26_linear_2_1717" x1="378.476" y1="321.584" x2="378.476" y2="814.78" gradientUnits="userSpaceOnUse">
<stop stop-color="white"/>
<stop offset="1" stop-color="white" stop-opacity="0.2"/>
</linearGradient>
<linearGradient id="paint27_linear_2_1717" x1="427.645" y1="321.585" x2="427.645" y2="814.783" gradientUnits="userSpaceOnUse">
<stop stop-color="white"/>
<stop offset="1" stop-color="white" stop-opacity="0.2"/>
</linearGradient>
<linearGradient id="paint28_linear_2_1717" x1="476.816" y1="321.589" x2="476.816" y2="814.781" gradientUnits="userSpaceOnUse">
<stop stop-color="white"/>
<stop offset="1" stop-color="white" stop-opacity="0.2"/>
</linearGradient>
<linearGradient id="paint29_linear_2_1717" x1="525.986" y1="321.588" x2="525.986" y2="814.784" gradientUnits="userSpaceOnUse">
<stop stop-color="white"/>
<stop offset="1" stop-color="white" stop-opacity="0.2"/>
</linearGradient>
<linearGradient id="paint30_linear_2_1717" x1="575.157" y1="321.588" x2="575.157" y2="814.784" gradientUnits="userSpaceOnUse">
<stop stop-color="white"/>
<stop offset="1" stop-color="white" stop-opacity="0.2"/>
</linearGradient>
<linearGradient id="paint31_linear_2_1717" x1="624.327" y1="321.587" x2="624.327" y2="814.785" gradientUnits="userSpaceOnUse">
<stop stop-color="white"/>
<stop offset="1" stop-color="white" stop-opacity="0.2"/>
</linearGradient>
<linearGradient id="paint32_linear_2_1717" x1="673.497" y1="321.588" x2="673.497" y2="814.784" gradientUnits="userSpaceOnUse">
<stop stop-color="white"/>
<stop offset="1" stop-color="white" stop-opacity="0.2"/>
</linearGradient>
<linearGradient id="paint33_linear_2_1717" x1="722.668" y1="321.588" x2="722.668" y2="814.784" gradientUnits="userSpaceOnUse">
<stop stop-color="white"/>
<stop offset="1" stop-color="white" stop-opacity="0.2"/>
</linearGradient>
<linearGradient id="paint34_linear_2_1717" x1="771.838" y1="321.588" x2="771.838" y2="814.784" gradientUnits="userSpaceOnUse">
<stop stop-color="white"/>
<stop offset="1" stop-color="white" stop-opacity="0.2"/>
</linearGradient>
<linearGradient id="paint35_linear_2_1717" x1="821.008" y1="321.589" x2="821.008" y2="814.784" gradientUnits="userSpaceOnUse">
<stop stop-color="white"/>
<stop offset="1" stop-color="white" stop-opacity="0.2"/>
</linearGradient>
<linearGradient id="paint36_linear_2_1717" x1="870.178" y1="321.588" x2="870.178" y2="814.784" gradientUnits="userSpaceOnUse">
<stop stop-color="white"/>
<stop offset="1" stop-color="white" stop-opacity="0.2"/>
</linearGradient>
<linearGradient id="paint37_linear_2_1717" x1="919.349" y1="321.587" x2="919.349" y2="814.784" gradientUnits="userSpaceOnUse">
<stop stop-color="white"/>
<stop offset="1" stop-color="white" stop-opacity="0.2"/>
</linearGradient>
<linearGradient id="paint38_linear_2_1717" x1="968.519" y1="321.588" x2="968.519" y2="814.786" gradientUnits="userSpaceOnUse">
<stop stop-color="white"/>
<stop offset="1" stop-color="white" stop-opacity="0.2"/>
</linearGradient>
<linearGradient id="paint39_linear_2_1717" x1="1017.69" y1="321.587" x2="1017.69" y2="814.784" gradientUnits="userSpaceOnUse">
<stop stop-color="white"/>
<stop offset="1" stop-color="white" stop-opacity="0.2"/>
</linearGradient>
<linearGradient id="paint40_linear_2_1717" x1="1066.86" y1="321.588" x2="1066.86" y2="814.784" gradientUnits="userSpaceOnUse">
<stop stop-color="white"/>
<stop offset="1" stop-color="white" stop-opacity="0.2"/>
</linearGradient>
<linearGradient id="paint41_linear_2_1717" x1="1116.03" y1="321.588" x2="1116.03" y2="814.785" gradientUnits="userSpaceOnUse">
<stop stop-color="white"/>
<stop offset="1" stop-color="white" stop-opacity="0.2"/>
</linearGradient>
<linearGradient id="paint42_linear_2_1717" x1="1165.2" y1="321.588" x2="1165.2" y2="814.784" gradientUnits="userSpaceOnUse">
<stop stop-color="white"/>
<stop offset="1" stop-color="white" stop-opacity="0.2"/>
</linearGradient>
<linearGradient id="paint43_linear_2_1717" x1="1214.37" y1="321.588" x2="1214.37" y2="814.784" gradientUnits="userSpaceOnUse">
<stop stop-color="white"/>
<stop offset="1" stop-color="white" stop-opacity="0.2"/>
</linearGradient>
<linearGradient id="paint44_linear_2_1717" x1="1263.54" y1="321.587" x2="1263.54" y2="814.802" gradientUnits="userSpaceOnUse">
<stop stop-color="white"/>
<stop offset="1" stop-color="white" stop-opacity="0.2"/>
</linearGradient>
<linearGradient id="paint45_linear_2_1717" x1="1312.71" y1="321.587" x2="1312.71" y2="814.785" gradientUnits="userSpaceOnUse">
<stop stop-color="white"/>
<stop offset="1" stop-color="white" stop-opacity="0.2"/>
</linearGradient>
<linearGradient id="paint46_linear_2_1717" x1="1361.88" y1="321.587" x2="1361.88" y2="814.784" gradientUnits="userSpaceOnUse">
<stop stop-color="white"/>
<stop offset="1" stop-color="white" stop-opacity="0.2"/>
</linearGradient>
<linearGradient id="paint47_linear_2_1717" x1="1411.05" y1="321.588" x2="1411.05" y2="814.784" gradientUnits="userSpaceOnUse">
<stop stop-color="white"/>
<stop offset="1" stop-color="white" stop-opacity="0.2"/>
</linearGradient>
<linearGradient id="paint48_linear_2_1717" x1="1708" y1="396.253" x2="631.811" y2="886.228" gradientUnits="userSpaceOnUse">
<stop offset="0.162634" stop-color="#05253D"/>
<stop offset="0.275052" stop-color="#67BFFF"/>
<stop offset="0.62742" stop-color="#278BD3" stop-opacity="0.51"/>
<stop offset="0.731524" stop-color="#4085B7" stop-opacity="0.26"/>
<stop offset="1" stop-color="#787878" stop-opacity="0"/>
</linearGradient>
</defs>
</svg>
