<svg width="1100" height="399" viewBox="0 0 1100 399" fill="none" xmlns="http://www.w3.org/2000/svg">
<path d="M1.30144 325.645C3.39457 340.719 5.01305 350.905 12.8356 361.296C19.3755 369.983 25.0443 371.245 33.597 374.665C48.9386 380.801 58.4741 373.058 74.3508 374.665C93.7553 376.629 104.17 383.62 123.563 385.806C143.023 387.999 154.025 385.806 173.544 385.806C196.066 385.806 208.724 384.108 231.215 385.806C255.953 387.674 269.533 393.89 294.268 395.833C318.556 397.741 332.59 401.888 356.552 395.833C378.443 390.301 388.252 372.077 410.378 369.095C435.597 365.696 448.954 382.858 474.2 385.806C494.853 388.218 506.575 383.988 527.257 385.806C549.006 387.718 560.877 397.862 582.621 395.833C604.936 393.75 615.793 378.644 637.985 374.665C658.25 371.032 669.93 372.089 690.273 374.665C708.469 376.969 718.147 385.292 736.409 385.806C761.437 386.51 774.43 368.934 799.462 369.095C823.904 369.251 836.636 382.599 860.978 385.806C884.304 388.88 898.029 392.755 920.955 385.806C934.619 381.665 940.944 371.688 954.789 369.095C977.275 364.883 989.089 383.194 1011.69 385.806C1026.66 387.536 1035.39 389.858 1050.14 385.806C1063.02 382.268 1071.42 380.944 1081.66 369.095C1090.59 358.777 1095.21 350.358 1098.58 334.558C1101.77 319.594 1098.58 310.114 1098.58 294.451C1098.58 283.139 1099.15 276.767 1098.58 265.484C1097.46 243.269 1095.33 230.736 1090.12 209.78C1087.34 198.6 1083.09 193.63 1081.66 181.928C1079.24 162.08 1086.7 151.331 1090.12 131.794C1093.33 113.483 1098.58 103.892 1098.58 85.0021C1098.58 66.1125 1098.15 53.0904 1090.12 38.2104C1080.94 21.1911 1070.16 18.9299 1055.52 14.8145C1044.02 11.5825 1037.24 15.2569 1025.53 14.8145C1004.76 14.0298 993.169 6.62157 972.474 9.24409C954.043 11.5797 944.807 23.2714 926.338 24.8413C905.775 26.5892 894.634 13.722 874.05 14.8145C857.917 15.6708 849.274 21.5076 833.296 24.8413C818.328 27.9643 809.949 32.708 794.849 31.5259C777.175 30.1423 768.553 18.3153 751.019 14.8145C731.088 10.8351 719.574 16.7789 699.5 14.8145C675.263 12.4428 661.856 -5.07526 637.985 1.44547C622.253 5.74268 615.501 17.5396 600.307 24.8413C585.928 31.751 577.75 36.8873 562.628 38.2104C542.521 39.9697 531.951 27.2943 511.878 24.8413C494.224 22.6839 484.192 26.4741 466.511 24.8413C446.549 22.9979 435.762 15.0881 415.761 14.8145C394.27 14.5206 382.637 23.5045 361.166 24.8413C350.065 25.5325 343.795 26.0477 332.715 24.8413C317.502 23.1849 309.518 15.405 294.268 14.8145C276.352 14.1209 266.683 21.6023 248.9 24.8413C230.638 28.1679 220.388 32.5252 201.995 31.5259C188.669 30.8018 181.455 23.3218 168.162 24.8413C155.373 26.3032 149.31 35.3405 136.635 38.2104C121.504 41.6365 112.629 40.8069 97.4191 38.2104C82.0843 35.5925 74.3176 27.3237 58.972 24.8413C45.244 22.6206 35.7554 15.3326 23.6007 24.8413C13.2416 32.9454 9.03951 43.2808 5.14615 59.3781C1.07448 76.2126 3.40617 87.3965 5.14615 105.056C6.73178 121.148 14.1463 129.018 12.8356 145.163C11.6589 159.656 3.72883 164.423 1.30144 178.586C-1.37628 194.209 0.832035 203.723 1.30144 219.807C1.93894 241.65 5.31195 253.65 5.14615 275.511C4.99675 295.209 -1.38015 306.333 1.30144 325.645Z" fill="#221846"/>
</svg>
