<svg width="1074" height="359" viewBox="0 0 1074 359" fill="none" xmlns="http://www.w3.org/2000/svg">
<path d="M4.26358 291.102C6.29582 304.438 7.86722 313.45 15.4622 322.643C21.8118 330.329 27.3157 331.444 35.6196 334.471C50.5149 339.899 59.7731 333.049 75.1879 334.471C94.0279 336.208 104.14 342.393 122.969 344.327C141.862 346.268 152.545 344.327 171.496 344.327C193.362 344.327 205.652 342.825 227.489 344.327C251.507 345.979 264.692 351.479 288.707 353.198C312.289 354.886 325.915 358.555 349.18 353.198C370.434 348.304 379.958 332.181 401.44 329.542C425.925 326.536 438.894 341.719 463.405 344.327C483.458 346.461 494.838 342.718 514.919 344.327C536.035 346.019 547.56 354.993 568.672 353.198C590.338 351.356 600.879 337.991 622.425 334.471C642.101 331.256 653.442 332.192 673.192 334.471C690.859 336.509 700.255 343.872 717.986 344.327C742.286 344.95 754.901 329.401 779.205 329.542C802.936 329.681 815.298 341.49 838.931 344.327C861.579 347.046 874.904 350.475 897.164 344.327C910.43 340.663 916.571 331.837 930.013 329.542C951.845 325.816 963.315 342.016 985.259 344.327C999.791 345.858 1008.27 347.912 1022.59 344.327C1035.09 341.197 1043.25 340.026 1053.2 329.542C1061.86 320.414 1066.35 312.966 1069.62 298.987C1072.72 285.749 1069.62 277.361 1069.62 263.504C1069.62 253.496 1070.17 247.859 1069.62 237.877C1068.54 218.223 1066.47 207.135 1061.41 188.595C1058.71 178.704 1054.58 174.307 1053.2 163.954C1050.85 146.394 1058.09 136.884 1061.41 119.6C1064.52 103.4 1069.62 94.9143 1069.62 78.2024C1069.62 61.4905 1069.21 49.9697 1061.41 36.8052C1052.49 21.748 1042.03 19.7475 1027.81 16.1066C1016.65 13.2472 1010.06 16.498 998.697 16.1066C978.534 15.4123 967.277 8.85818 947.184 11.1784C929.289 13.2447 920.322 23.5885 902.39 24.9774C882.425 26.5238 871.608 15.14 851.623 16.1066C835.96 16.8642 827.568 22.028 812.054 24.9774C797.522 27.7403 789.387 31.9371 774.726 30.8913C757.566 29.6672 749.195 19.2037 732.171 16.1066C712.82 12.586 701.641 17.8445 682.151 16.1066C658.619 14.0083 645.602 -1.49014 622.425 4.27882C607.151 8.08061 600.596 18.5175 585.843 24.9774C571.883 31.0905 563.943 35.6346 549.261 36.8052C529.739 38.3617 519.476 27.1476 499.987 24.9774C482.846 23.0687 473.106 26.422 455.94 24.9774C436.558 23.3465 426.086 16.3486 406.666 16.1066C385.801 15.8466 374.506 23.7947 353.659 24.9774C342.882 25.5889 336.793 26.0447 326.036 24.9774C311.266 23.5119 303.514 16.629 288.707 16.1066C271.313 15.4929 261.925 22.1118 244.66 24.9774C226.929 27.9205 216.977 31.7754 199.119 30.8913C186.181 30.2508 179.177 23.633 166.27 24.9774C153.853 26.2707 147.966 34.2661 135.66 36.8052C120.969 39.8363 112.352 39.1024 97.5851 36.8052C82.6964 34.4891 75.1556 27.1736 60.2565 24.9774C46.9278 23.0127 37.7153 16.5649 25.9142 24.9774C15.8564 32.1472 11.7765 41.291 7.99644 55.5325C4.04322 70.4262 6.30708 80.3207 7.99644 95.944C9.53594 110.181 16.7347 117.144 15.4622 131.427C14.3198 144.25 6.62035 148.467 4.26358 160.997C1.66376 174.819 3.80783 183.236 4.26358 197.466C4.88253 216.79 8.15742 227.407 7.99644 246.748C7.85139 264.175 1.66 274.017 4.26358 291.102Z" stroke="#B999FE" stroke-width="5"/>
</svg>
