<svg width="1100" height="399" viewBox="0 0 1100 399" fill="none" xmlns="http://www.w3.org/2000/svg">
<path d="M1.30144 325.645C3.39457 340.719 5.01305 350.905 12.8356 361.296C19.3755 369.983 25.0443 371.245 33.597 374.665C48.9386 380.801 58.4741 373.058 74.3508 374.665C93.7553 376.629 104.17 383.62 123.563 385.806C143.023 387.999 154.025 385.806 173.544 385.806C196.066 385.806 208.724 384.108 231.215 385.806C255.953 387.674 269.533 393.89 294.268 395.833C318.556 397.741 332.59 401.888 356.552 395.833C378.443 390.301 388.252 372.077 410.378 369.095C435.597 365.696 448.954 382.858 474.2 385.806C494.853 388.218 506.575 383.988 527.257 385.806C549.006 387.718 560.877 397.862 582.621 395.833C604.936 393.75 615.793 378.644 637.985 374.665C658.25 371.032 669.93 372.089 690.273 374.665C708.469 376.969 718.147 385.292 736.409 385.806C761.437 386.51 774.43 368.934 799.462 369.095C823.904 369.251 836.636 382.599 860.978 385.806C884.304 388.88 898.029 392.755 920.955 385.806C934.619 381.665 940.944 371.688 954.789 369.095C977.275 364.883 989.089 383.194 1011.69 385.806C1026.66 387.536 1035.39 389.858 1050.14 385.806C1063.02 382.268 1071.42 380.944 1081.66 369.095C1090.59 358.777 1095.21 350.358 1098.58 334.558C1101.77 319.594 1098.58 310.114 1098.58 294.451C1098.58 283.139 1099.15 276.767 1098.58 265.484C1097.46 243.269 1095.33 230.736 1090.12 209.78C1087.34 198.6 1083.09 193.63 1081.66 181.928C1079.24 162.08 1086.7 151.331 1090.12 131.794C1093.33 113.483 1098.58 103.892 1098.58 85.0021C1098.58 66.1125 1098.15 53.0904 1090.12 38.2104C1080.94 21.1911 1070.16 18.9299 1055.52 14.8145C1044.02 11.5825 1037.24 15.2569 1025.53 14.8145C1004.76 14.0298 993.169 6.62157 972.474 9.24409C954.043 11.5797 944.807 23.2714 926.338 24.8413C905.775 26.5892 894.634 13.722 874.05 14.8145C857.917 15.6708 849.274 21.5076 833.296 24.8413C818.328 27.9643 809.949 32.708 794.849 31.5259C777.175 30.1423 768.553 18.3153 751.019 14.8145C731.088 10.8351 719.574 16.7789 699.5 14.8145C675.263 12.4428 661.856 -5.07526 637.985 1.44547C622.253 5.74268 615.501 17.5396 600.307 24.8413C585.928 31.751 577.75 36.8873 562.628 38.2104C542.521 39.9697 531.951 27.2943 511.878 24.8413C494.224 22.6839 484.192 26.4741 466.511 24.8413C446.549 22.9979 435.762 15.0881 415.761 14.8145C394.27 14.5206 382.637 23.5045 361.166 24.8413C350.065 25.5325 343.795 26.0477 332.715 24.8413C317.502 23.1849 309.518 15.405 294.268 14.8145C276.352 14.1209 266.683 21.6023 248.9 24.8413C230.638 28.1679 220.388 32.5252 201.995 31.5259C188.669 30.8018 181.455 23.3218 168.162 24.8413C155.373 26.3032 149.31 35.3405 136.635 38.2104C121.504 41.6365 112.629 40.8069 97.4191 38.2104C82.0843 35.5925 74.3176 27.3237 58.972 24.8413C45.244 22.6206 35.7554 15.3326 23.6007 24.8413C13.2416 32.9454 9.03951 43.2808 5.14615 59.3781C1.07448 76.2126 3.40617 87.3965 5.14615 105.056C6.73178 121.148 14.1463 129.018 12.8356 145.163C11.6589 159.656 3.72883 164.423 1.30144 178.586C-1.37628 194.209 0.832035 203.723 1.30144 219.807C1.93894 241.65 5.31195 253.65 5.14615 275.511C4.99675 295.209 -1.38015 306.333 1.30144 325.645Z" fill="#221846"/>
<path d="M19.2636 314.102C21.2958 327.439 22.8672 336.45 30.4622 345.643C36.8118 353.329 42.3157 354.444 50.6196 357.471C65.5149 362.899 74.7731 356.049 90.1879 357.471C109.028 359.208 119.139 365.393 137.969 367.327C156.862 369.268 167.545 367.327 186.496 367.327C208.362 367.327 220.652 365.825 242.489 367.327C266.507 368.979 279.692 374.479 303.707 376.198C327.289 377.886 340.915 381.555 364.18 376.198C385.434 371.304 394.958 355.181 416.44 352.542C440.925 349.536 453.894 364.719 478.405 367.327C498.458 369.461 509.838 365.718 529.919 367.327C551.035 369.019 562.56 377.993 583.672 376.198C605.338 374.356 615.879 360.991 637.425 357.471C657.101 354.256 668.442 355.192 688.192 357.471C705.859 359.509 715.255 366.872 732.986 367.327C757.286 367.95 769.901 352.401 794.205 352.542C817.936 352.681 830.298 364.49 853.931 367.327C876.579 370.046 889.904 373.475 912.164 367.327C925.43 363.663 931.571 354.837 945.013 352.542C966.845 348.816 978.315 365.016 1000.26 367.327C1014.79 368.858 1023.27 370.912 1037.59 367.327C1050.09 364.197 1058.25 363.026 1068.2 352.542C1076.86 343.414 1081.35 335.966 1084.62 321.987C1087.72 308.749 1084.62 300.361 1084.62 286.504C1084.62 276.496 1085.17 270.859 1084.62 260.877C1083.54 241.223 1081.47 230.135 1076.41 211.595C1073.71 201.704 1069.58 197.307 1068.2 186.954C1065.85 169.394 1073.09 159.884 1076.41 142.6C1079.52 126.4 1084.62 117.914 1084.62 101.202C1084.62 84.4905 1084.21 72.9697 1076.41 59.8052C1067.49 44.748 1057.03 42.7475 1042.81 39.1066C1031.65 36.2472 1025.06 39.498 1013.7 39.1066C993.534 38.4123 982.277 31.8582 962.184 34.1784C944.289 36.2447 935.322 46.5885 917.39 47.9774C897.425 49.5238 886.608 38.14 866.623 39.1066C850.96 39.8642 842.568 45.028 827.054 47.9774C812.522 50.7403 804.387 54.9371 789.726 53.8913C772.566 52.6672 764.195 42.2037 747.171 39.1066C727.82 35.586 716.641 40.8445 697.151 39.1066C673.619 37.0083 660.602 21.5099 637.425 27.2788C622.151 31.0806 615.596 41.5175 600.843 47.9774C586.883 54.0905 578.943 58.6346 564.261 59.8052C544.739 61.3617 534.476 50.1476 514.987 47.9774C497.846 46.0687 488.106 49.422 470.94 47.9774C451.558 46.3465 441.086 39.3486 421.666 39.1066C400.801 38.8466 389.506 46.7947 368.659 47.9774C357.882 48.5889 351.793 49.0447 341.036 47.9774C326.266 46.5119 318.514 39.629 303.707 39.1066C286.313 38.4929 276.925 45.1118 259.66 47.9774C241.929 50.9205 231.977 54.7754 214.119 53.8913C201.181 53.2508 194.177 46.633 181.27 47.9774C168.853 49.2707 162.966 57.2661 150.66 59.8052C135.969 62.8363 127.352 62.1024 112.585 59.8052C97.6964 57.4891 90.1556 50.1736 75.2565 47.9774C61.9278 46.0127 52.7153 39.5649 40.9142 47.9774C30.8564 55.1472 26.7765 64.291 22.9964 78.5325C19.0432 93.4262 21.3071 103.321 22.9964 118.944C24.5359 133.181 31.7347 140.144 30.4622 154.427C29.3198 167.25 21.6204 171.467 19.2636 183.997C16.6638 197.819 18.8078 206.236 19.2636 220.466C19.8825 239.79 23.1574 250.407 22.9964 269.748C22.8514 287.175 16.66 297.017 19.2636 314.102Z" stroke="#B999FE" stroke-width="5"/>
</svg>
